<svg width="20" height="21" viewBox="0 0 20 21" fill="none" xmlns="http://www.w3.org/2000/svg">
<g id="Frame">
<path id="Vector" d="M9.16026 12.8374C9.99791 12.2798 10.6339 11.4674 10.9741 10.5203C11.3143 9.57325 11.3407 8.54185 11.0494 7.57862C10.7581 6.6154 10.1646 5.77149 9.35653 5.17169C8.54851 4.57189 7.56891 4.24805 6.5626 4.24805C5.55629 4.24805 4.57669 4.57189 3.76867 5.17169C2.96065 5.77149 2.3671 6.6154 2.0758 7.57862C1.78449 8.54185 1.8109 9.57325 2.15111 10.5203C2.49133 11.4674 3.12729 12.2798 3.96494 12.8374C2.4497 13.3959 1.15565 14.4293 0.275881 15.7835C0.229643 15.8523 0.197527 15.9295 0.181398 16.0107C0.165269 16.092 0.165449 16.1756 0.181929 16.2568C0.198409 16.338 0.230858 16.415 0.277392 16.4836C0.323926 16.5521 0.383616 16.6107 0.452992 16.6559C0.522368 16.7012 0.600047 16.7322 0.681512 16.7472C0.762978 16.7621 0.846606 16.7607 0.927534 16.7431C1.00846 16.7255 1.08508 16.6919 1.15293 16.6444C1.22078 16.5969 1.2785 16.5364 1.32276 16.4664C1.89025 15.5935 2.66678 14.8763 3.58185 14.3798C4.49691 13.8833 5.52151 13.6232 6.5626 13.6232C7.60369 13.6232 8.62829 13.8833 9.54335 14.3798C10.4584 14.8763 11.235 15.5935 11.8024 16.4664C11.8941 16.6026 12.0357 16.6973 12.1966 16.73C12.3576 16.7626 12.5249 16.7307 12.6624 16.6409C12.8 16.5512 12.8967 16.411 12.9317 16.2506C12.9666 16.0901 12.9371 15.9224 12.8493 15.7835C11.9695 14.4293 10.6755 13.3959 9.16026 12.8374ZM3.1251 8.93745C3.1251 8.25758 3.32671 7.59297 3.70442 7.02768C4.08214 6.46238 4.619 6.02179 5.24713 5.76161C5.87525 5.50144 6.56641 5.43336 7.23322 5.566C7.90003 5.69864 8.51254 6.02603 8.99328 6.50677C9.47402 6.98751 9.80141 7.60002 9.93405 8.26683C10.0667 8.93364 9.99861 9.6248 9.73844 10.2529C9.47826 10.881 9.03767 11.4179 8.47237 11.7956C7.90708 12.1733 7.24247 12.3749 6.5626 12.3749C5.65124 12.3739 4.77749 12.0114 4.13306 11.367C3.48863 10.7226 3.12613 9.84881 3.1251 8.93745ZM19.5423 16.6484C19.4035 16.7389 19.2344 16.7706 19.0722 16.7365C18.91 16.7023 18.768 16.6052 18.6774 16.4664C18.1106 15.593 17.3342 14.8755 16.4189 14.3791C15.5037 13.8828 14.4788 13.6236 13.4376 13.6249C13.2718 13.6249 13.1129 13.5591 12.9957 13.4419C12.8784 13.3247 12.8126 13.1657 12.8126 12.9999C12.8126 12.8342 12.8784 12.6752 12.9957 12.558C13.1129 12.4408 13.2718 12.3749 13.4376 12.3749C13.9438 12.3745 14.4437 12.2622 14.9015 12.0461C15.3593 11.8301 15.7637 11.5156 16.0859 11.1251C16.4081 10.7346 16.64 10.2778 16.7652 9.78727C16.8903 9.29676 16.9056 8.78466 16.8099 8.28756C16.7142 7.79047 16.5098 7.32064 16.2115 6.91166C15.9132 6.50268 15.5282 6.16464 15.0841 5.92169C14.64 5.67874 14.1477 5.53688 13.6424 5.50625C13.1371 5.47562 12.6313 5.55696 12.161 5.74448C12.0844 5.77762 12.0018 5.79506 11.9183 5.79577C11.8348 5.79647 11.752 5.78043 11.6748 5.74859C11.5975 5.71675 11.5275 5.66975 11.4688 5.61038C11.41 5.55101 11.3638 5.48046 11.3327 5.40291C11.3017 5.32536 11.2866 5.24238 11.2881 5.15887C11.2897 5.07536 11.3081 4.99302 11.342 4.91671C11.376 4.8404 11.4249 4.77167 11.4858 4.71458C11.5468 4.65749 11.6186 4.6132 11.697 4.58432C12.7731 4.15514 13.9701 4.1397 15.0569 4.54097C16.1438 4.94224 17.0435 5.73179 17.5826 6.75731C18.1217 7.78282 18.2619 8.97164 17.9761 10.0944C17.6904 11.2172 16.999 12.1944 16.0353 12.8374C17.5505 13.3959 18.8445 14.4293 19.7243 15.7835C19.8148 15.9224 19.8465 16.0915 19.8124 16.2537C19.7783 16.4158 19.6811 16.5578 19.5423 16.6484Z" fill="black"/>
</g>
</svg>
